<svg width="50" height="50" viewBox="0 0 50 50" fill="none" xmlns="http://www.w3.org/2000/svg">
<path id="Vector" d="M25 50C11.1895 50 0 38.8105 0 25C0 11.1895 11.1895 0 25 0C38.8105 0 50 11.1895 50 25C50 38.8105 38.8105 50 25 50ZM27.9133 35.5242L20.3024 28.2258H38.7097C40.0504 28.2258 41.129 27.1472 41.129 25.8065V24.1935C41.129 22.8528 40.0504 21.7742 38.7097 21.7742H20.3024L27.9133 14.4758C28.8911 13.5383 28.9113 11.9758 27.9536 11.0181L26.8448 9.91936C25.8972 8.97177 24.3649 8.97177 23.4274 9.91936L10.0504 23.2863C9.10282 24.2339 9.10282 25.7661 10.0504 26.7036L23.4274 40.0806C24.375 41.0282 25.9073 41.0282 26.8448 40.0806L27.9536 38.9819C28.9113 38.0242 28.8911 36.4617 27.9133 35.5242Z" fill="#4E5394"/>
</svg>
