<svg width="34" height="32" viewBox="0 0 34 32" fill="none" xmlns="http://www.w3.org/2000/svg">
<path id="Vector" d="M11.9005 15.9996C15.6565 15.9996 18.7007 12.4185 18.7007 7.99981C18.7007 3.58117 15.6565 0 11.9005 0C8.14438 0 5.1002 3.58117 5.1002 7.99981C5.1002 12.4185 8.14438 15.9996 11.9005 15.9996ZM16.6607 17.9996H15.7734C14.594 18.6371 13.2818 18.9995 11.9005 18.9995C10.5192 18.9995 9.21224 18.6371 8.0275 17.9996H7.14028C3.19825 17.9996 0 21.762 0 26.3994V28.9993C0 30.6555 1.14223 31.9992 2.5501 31.9992H17.1547C17.0272 31.5743 16.9741 31.1243 17.0166 30.668L17.3779 26.8619L17.4416 26.1681L17.8613 25.6744L21.968 20.8433C20.6664 19.112 18.7804 17.9996 16.6607 17.9996ZM19.0673 27.0806L18.706 30.893C18.6476 31.5305 19.1045 32.068 19.6411 31.993L22.8765 31.568L30.2027 22.9495L26.3935 18.4683L19.0673 27.0806ZM33.6294 16.8059L31.6159 14.4372C31.1218 13.8559 30.3143 13.8559 29.8202 14.4372L27.812 16.7996L27.5942 17.0558L31.4087 21.537L33.6294 18.9246C34.1235 18.3371 34.1235 17.3933 33.6294 16.8059Z" fill="#4E5394"/>
</svg>
